<?xml version="1.0" standalone="no"?>
<!DOCTYPE svg PUBLIC "-//W3C//DTD SVG 20010904//EN"
 "http://www.w3.org/TR/2001/REC-SVG-20010904/DTD/svg10.dtd">
<svg version="1.0" xmlns="http://www.w3.org/2000/svg"
 width="512.000000pt" height="512.000000pt" viewBox="0 0 512.000000 512.000000"
 preserveAspectRatio="xMidYMid meet">
<metadata>
Created by potrace 1.15, written by Peter Selinger 2001-2017
</metadata>
<g transform="translate(0.000000,512.000000) scale(0.100000,-0.100000)"
fill="#ffffff" stroke="none">
<path d="M203 4958 c-174 -172 -196 -198 -191 -231 3 -19 32 5 192 163 103
102 192 193 197 203 8 14 5 17 -17 17 -21 0 -60 -33 -181 -152z"/>
<path d="M303 4858 c-140 -139 -264 -265 -275 -281 -10 -15 -18 -37 -16 -50 3
-18 49 23 292 263 158 157 292 293 297 303 8 14 5 17 -17 17 -22 0 -75 -47
-281 -252z"/>
<path d="M402 4758 c-194 -194 -362 -365 -373 -381 -11 -15 -19 -37 -17 -50 4
-18 67 40 392 363 213 212 392 393 397 403 8 14 5 17 -18 17 -22 0 -89 -62
-381 -352z"/>
<path d="M502 4658 c-249 -249 -462 -465 -473 -481 -11 -15 -19 -37 -17 -50 4
-18 84 57 492 463 268 267 492 493 497 503 8 14 5 17 -18 17 -22 0 -104 -76
-481 -452z"/>
<path d="M602 4558 c-304 -304 -562 -565 -573 -581 -11 -15 -19 -37 -17 -50 4
-18 101 75 592 563 323 322 592 593 597 603 8 14 5 17 -18 17 -23 0 -118 -91
-581 -552z"/>
<path d="M1305 5058 c-31 -28 -71 -58 -88 -67 -18 -9 -40 -32 -49 -51 -10 -19
-61 -78 -115 -132 -74 -74 -104 -98 -124 -98 -31 0 -53 -22 -74 -75 -12 -28
-92 -116 -268 -292 -139 -139 -257 -253 -263 -253 -30 0 -137 -66 -177 -109
-43 -46 -97 -136 -97 -163 0 -7 -9 -24 -20 -38 -20 -26 -28 -76 -10 -65 6 4
10 -21 10 -69 0 -41 -4 -78 -10 -81 -5 -3 -10 -17 -10 -31 0 -14 4 -22 10 -19
6 4 10 -21 10 -69 0 -41 -4 -78 -10 -81 -5 -3 -10 -17 -10 -31 0 -14 4 -22 10
-19 6 4 10 -21 10 -69 0 -41 -4 -78 -10 -81 -5 -3 -10 -17 -10 -31 0 -14 4
-22 10 -19 6 4 10 -21 10 -69 0 -41 -4 -78 -10 -81 -5 -3 -10 -17 -10 -31 0
-14 4 -22 10 -19 6 4 10 -21 10 -69 0 -41 -4 -78 -10 -81 -5 -3 -10 -17 -10
-31 0 -14 4 -22 10 -19 6 4 10 -21 10 -69 0 -41 -4 -78 -10 -81 -5 -3 -10 -17
-10 -31 0 -14 4 -22 10 -19 6 4 10 -21 10 -69 0 -41 -4 -78 -10 -81 -5 -3 -10
-17 -10 -31 0 -14 4 -22 10 -19 6 4 10 -21 10 -69 0 -41 -4 -78 -10 -81 -5 -3
-10 -17 -10 -31 0 -14 4 -22 10 -19 6 4 10 -21 10 -69 0 -41 -4 -78 -10 -81
-5 -3 -10 -17 -10 -31 0 -14 4 -22 10 -19 6 4 10 -21 10 -69 0 -41 -4 -78 -10
-81 -5 -3 -10 -17 -10 -31 0 -14 4 -22 10 -19 6 4 10 -21 10 -69 0 -41 -4 -78
-10 -81 -5 -3 -10 -17 -10 -31 0 -14 4 -22 10 -19 6 4 10 -21 10 -69 0 -41 -4
-78 -10 -81 -5 -3 -10 -17 -10 -31 0 -14 4 -22 10 -19 6 4 10 -21 10 -69 0
-41 -5 -78 -10 -81 -6 -3 -10 -17 -10 -31 0 -14 4 -22 10 -19 6 4 10 -21 10
-69 0 -41 -4 -78 -10 -81 -15 -10 -13 -55 3 -49 9 3 18 -11 28 -43 15 -48 15
-48 -14 -84 -17 -23 -27 -46 -25 -60 3 -22 4 -22 42 11 l38 34 28 -34 28 -35
-69 -72 c-47 -50 -69 -81 -69 -98 0 -14 3 -25 6 -25 4 0 43 36 89 80 l82 80
41 -22 41 -23 -130 -131 c-99 -102 -129 -138 -129 -158 0 -39 15 -28 174 132
86 87 144 138 155 136 9 -1 33 -6 55 -9 l39 -6 -212 -213 c-170 -171 -211
-218 -211 -240 0 -22 3 -25 18 -17 9 5 120 114 247 240 l230 231 65 0 65 0
-288 -288 c-158 -158 -287 -291 -287 -295 0 -4 12 -7 27 -7 22 0 82 55 323
295 l296 295 64 0 65 0 -288 -288 c-158 -158 -287 -291 -287 -295 0 -4 12 -7
27 -7 22 0 82 55 323 295 l296 295 64 0 65 0 -288 -288 c-158 -158 -287 -291
-287 -295 0 -4 12 -7 27 -7 22 0 82 55 323 295 l296 295 64 0 65 0 -288 -288
c-158 -158 -287 -291 -287 -295 0 -4 12 -7 27 -7 22 0 82 55 323 295 l296 295
64 0 65 0 -288 -288 c-158 -158 -287 -291 -287 -295 0 -4 12 -7 27 -7 22 0 82
55 323 295 l296 295 64 0 65 0 -288 -288 c-158 -158 -287 -291 -287 -295 0 -4
12 -7 27 -7 21 0 81 54 315 288 l289 287 -46 -110 c-41 -98 -53 -118 -118
-183 -40 -41 -82 -78 -94 -82 -12 -5 -33 -26 -47 -47 -13 -21 -43 -56 -66 -78
-23 -22 -46 -48 -51 -57 -18 -33 35 -20 81 19 26 22 45 33 47 26 3 -7 20 -17
39 -23 24 -8 34 -17 30 -26 -7 -19 33 -18 58 1 13 10 43 15 84 15 53 0 63 -3
58 -15 -7 -20 32 -20 58 0 13 10 43 15 84 15 53 0 63 -3 58 -15 -7 -20 32 -20
58 0 13 10 43 15 84 15 53 0 63 -3 58 -15 -7 -20 32 -20 58 0 13 10 43 15 84
15 53 0 63 -3 58 -15 -7 -20 32 -20 58 0 13 10 43 15 84 15 53 0 63 -3 58 -15
-7 -20 32 -20 58 0 13 10 43 15 84 15 53 0 63 -3 58 -15 -7 -20 32 -20 58 0
11 8 41 15 67 15 26 0 59 4 73 10 26 9 26 9 10 -15 -16 -25 -16 -25 12 -25 23
0 77 49 324 295 l296 295 64 0 65 0 -288 -288 c-158 -158 -287 -291 -287 -295
0 -4 12 -7 27 -7 22 0 82 55 323 295 l296 295 64 0 65 0 -288 -288 c-158 -158
-287 -291 -287 -295 0 -4 12 -7 27 -7 22 0 83 56 327 299 270 267 305 299 341
306 132 23 277 168 300 301 7 35 50 82 436 469 353 355 429 436 429 458 0 15
-3 27 -7 27 -4 0 -195 -188 -425 -417 l-418 -418 0 65 0 64 425 426 c350 351
425 431 425 453 0 15 -3 27 -7 27 -4 0 -195 -188 -425 -417 l-418 -418 0 65 0
64 425 426 c350 351 425 431 425 453 0 15 -3 27 -7 27 -4 0 -195 -188 -425
-417 l-418 -418 0 65 0 64 425 426 c350 351 425 431 425 453 0 15 -3 27 -7 27
-4 0 -195 -188 -425 -417 l-418 -418 0 65 0 64 425 426 c350 351 425 431 425
453 0 15 -3 27 -7 27 -4 0 -195 -188 -425 -417 l-418 -418 0 65 0 64 425 426
c350 351 425 431 425 453 0 15 -3 27 -7 27 -4 0 -195 -188 -425 -417 l-418
-418 0 65 0 64 425 426 c350 351 425 431 425 453 0 15 -3 27 -7 27 -4 0 -195
-188 -425 -417 l-418 -418 0 65 0 64 425 426 c350 351 425 431 425 453 0 15
-3 27 -7 27 -4 0 -195 -188 -425 -417 l-418 -418 0 65 0 64 425 426 c350 351
425 431 425 453 0 15 -3 27 -6 27 -17 0 -193 -185 -249 -260 -71 -96 -191
-216 -280 -279 -33 -24 -117 -100 -186 -168 l-126 -125 -6 99 c-8 120 -9 423
-1 423 3 0 35 -24 72 -53 85 -68 107 -80 135 -72 12 4 79 64 150 133 99 99
127 132 127 153 0 25 -68 128 -105 159 -20 17 -19 28 10 94 27 61 27 61 140
71 44 3 79 12 95 24 25 18 25 18 28 208 2 188 2 189 -22 212 -17 16 -44 25
-97 32 -120 16 -115 14 -143 75 -14 31 -26 61 -26 66 0 5 27 44 60 86 86 111
86 109 -62 260 -68 68 -133 128 -145 133 -32 12 -58 0 -135 -64 l-68 -55 -64
25 -64 26 -11 74 c-6 40 -11 83 -11 94 0 11 -13 34 -29 50 l-29 29 -177 0
-177 0 -29 -29 c-16 -16 -29 -39 -29 -50 0 -11 -5 -53 -11 -94 l-11 -74 -56
-24 c-31 -13 -59 -25 -63 -27 -3 -1 -37 23 -75 54 -79 65 -105 77 -136 65 -13
-5 -78 -65 -145 -133 -149 -152 -149 -151 -63 -256 33 -41 60 -77 60 -80 0 -4
-12 -34 -26 -68 l-25 -60 -92 -14 c-51 -7 -162 -15 -247 -17 l-155 -4 66 68
c48 49 71 82 83 118 l16 50 -117 -117 c-118 -117 -119 -118 -166 -118 -39 0
-47 3 -47 18 0 26 45 65 116 100 62 31 74 45 74 86 0 15 110 131 376 396 206
206 379 383 385 393 8 14 5 17 -18 17 -22 0 -91 -64 -394 -366 l-367 -366 -17
47 -18 46 311 313 c172 171 312 315 312 319 0 4 -12 7 -27 7 -22 0 -82 -55
-319 -291 l-293 -292 -15 38 c-9 21 -16 43 -16 49 0 6 102 112 226 236 124
124 230 233 235 243 8 14 5 17 -17 17 -22 0 -72 -44 -258 -229 l-231 -228 -55
-6 c-30 -3 -64 -9 -75 -13 -11 -4 85 99 213 228 127 129 232 237 232 241 0 4
-12 7 -27 7 -21 0 -74 -47 -267 -240 l-241 -240 -29 36 -28 36 196 197 c108
108 196 200 196 204 0 4 -12 7 -26 7 -20 0 -60 -33 -174 -146 l-148 -146 5 41
c4 26 1 46 -7 56 -11 13 -1 28 69 99 44 46 81 86 81 90 0 3 -11 6 -25 6 -18 0
-49 -23 -105 -76 l-80 -76 -44 18 -45 19 50 52 c27 28 49 54 49 57 0 3 -11 6
-24 6 -14 0 -44 -18 -74 -45 l-50 -45 -38 16 c-50 21 -48 18 -29 48 17 25 17
26 -4 26 -30 0 -126 -64 -152 -102 -12 -18 -38 -50 -58 -70 -30 -33 -41 -38
-78 -38 -71 0 -66 20 26 114 44 46 81 86 81 90 0 3 -11 6 -25 6 -17 0 -47 -21
-94 -65 -37 -36 -71 -65 -73 -65 -3 0 -13 17 -22 39 -17 37 -17 40 -1 65 17
26 17 26 -8 26 -14 0 -29 -4 -32 -10 -3 -5 -21 -10 -39 -10 -19 0 -49 -6 -67
-14 -19 -7 -45 -17 -59 -21 -24 -7 -24 -7 -9 11 31 36 31 44 5 44 -15 0 -45
-19 -81 -52z m210 -228 c19 -38 43 -73 52 -78 10 -5 77 -13 149 -17 150 -8
140 -12 199 85 20 33 39 60 41 60 6 0 124 -60 124 -63 0 -1 -9 -31 -20 -67
-32 -104 -30 -110 62 -208 104 -112 114 -116 213 -93 54 13 78 15 81 7 2 -6
13 -37 23 -68 l20 -57 -62 -31 c-102 -52 -100 -48 -101 -207 l-1 -138 67 -45
c37 -25 70 -48 73 -51 3 -4 -7 -34 -24 -67 l-31 -61 -77 25 c-43 13 -84 24
-91 24 -17 0 -205 -177 -215 -203 -5 -13 -2 -48 9 -89 9 -38 14 -74 11 -81 -4
-11 -98 -47 -123 -47 -6 0 -25 31 -44 69 -18 38 -42 74 -54 79 -29 14 -255 22
-282 10 -11 -5 -38 -39 -58 -74 -21 -35 -41 -66 -44 -68 -4 -2 -35 10 -68 28
l-62 31 24 79 c13 44 21 89 18 103 -4 13 -28 43 -55 66 -27 23 -61 58 -75 79
-45 64 -67 67 -220 31 -18 -4 -24 4 -42 55 -12 32 -22 63 -22 68 0 6 29 24 65
42 35 17 71 42 78 54 21 34 30 259 11 286 -7 11 -43 37 -78 58 l-65 37 31 61
c17 34 32 62 33 64 2 2 34 -6 73 -17 38 -12 80 -21 93 -21 16 1 55 30 122 95
108 105 108 103 81 211 -9 36 -15 66 -13 68 5 4 121 44 131 45 4 1 24 -30 43
-69z m-330 -46 c6 -36 3 -42 -33 -78 l-40 -38 -51 13 -52 13 78 78 c83 83 87
84 98 12z m2795 -41 c1 -10 5 -51 9 -91 9 -77 36 -122 71 -122 9 0 58 -20 109
-45 51 -25 100 -45 110 -45 10 0 53 25 96 56 l77 57 59 -59 59 -59 -55 -69
c-62 -77 -68 -109 -34 -157 12 -17 34 -67 50 -112 16 -45 36 -87 45 -94 9 -6
42 -15 73 -18 31 -3 71 -8 89 -11 l32 -5 0 -83 0 -82 -90 -11 c-103 -12 -121
-23 -140 -86 -7 -23 -28 -72 -46 -109 -19 -37 -34 -80 -34 -94 0 -17 20 -54
54 -99 l54 -72 -57 -57 c-31 -31 -60 -56 -65 -56 -4 0 -33 20 -64 43 -97 74
-95 74 -171 34 -37 -20 -92 -43 -123 -52 -31 -8 -63 -24 -73 -35 -15 -16 -33
-111 -35 -182 0 -16 -11 -18 -85 -18 -74 0 -85 2 -85 18 -1 60 -21 156 -35
172 -9 10 -44 28 -78 40 -34 13 -85 36 -113 51 -28 16 -60 29 -71 29 -11 0
-53 -25 -93 -55 -40 -30 -76 -55 -80 -55 -3 0 -31 26 -62 58 l-57 57 54 72
c34 44 55 82 55 98 0 14 -13 49 -29 78 -16 28 -39 82 -51 120 -12 37 -29 71
-39 76 -9 5 -56 13 -104 17 l-87 7 0 83 c0 94 -6 88 102 99 83 8 110 28 133
97 9 28 30 78 46 110 16 31 29 69 29 83 0 16 -21 54 -55 98 l-54 72 57 58 c31
31 59 57 62 57 3 0 38 -25 79 -55 41 -30 82 -55 92 -55 10 0 47 15 81 34 35
19 89 42 121 51 70 20 81 39 92 158 l7 77 84 0 c73 0 84 -2 84 -17z m-3221
-314 c-6 -12 -9 -43 -7 -70 l5 -47 -106 -106 -106 -106 -65 0 -65 0 175 175
c96 96 176 175 178 175 1 0 -2 -10 -9 -21z m77 -171 c16 -12 31 -23 33 -25 3
-2 -24 -33 -59 -68 l-64 -65 -66 0 -65 0 90 90 c49 50 92 90 96 90 3 0 19 -10
35 -22z m-61 -461 c28 -78 60 -152 72 -164 27 -28 63 -29 160 -4 l72 19 39
-47 39 -46 -23 -75 c-25 -79 -29 -117 -16 -138 8 -12 303 -152 322 -152 30 0
65 32 107 96 l48 74 61 0 60 0 30 -62 c39 -83 69 -118 103 -118 49 0 304 97
329 125 27 32 27 35 1 141 -12 46 -20 86 -18 87 3 1 22 19 45 40 l40 37 74
-25 c87 -29 131 -32 152 -7 16 18 126 251 138 292 4 14 3 35 -1 48 l-9 23 133
-3 132 -3 5 -121 c3 -81 9 -126 19 -137 17 -21 65 -34 154 -43 50 -5 70 -11
74 -23 3 -9 15 -39 28 -66 l22 -51 -35 -39 c-62 -72 -92 -118 -92 -143 0 -19
31 -57 123 -150 67 -68 131 -127 141 -131 34 -13 63 0 136 61 l71 60 42 -20
c23 -11 52 -23 65 -26 12 -4 22 -10 22 -14 0 -4 7 -50 15 -102 21 -141 19
-140 244 -140 124 0 181 4 189 12 9 9 12 -148 12 -710 l0 -722 -1950 0 -1950
0 0 1163 0 1162 24 51 c28 60 79 102 144 120 28 7 111 13 202 13 l155 1 50
-143z m3329 -2694 c-2 -184 -14 -227 -82 -283 -77 -64 33 -60 -1872 -60 -1905
0 -1795 -4 -1872 60 -68 56 -78 93 -78 283 l0 167 1953 -2 1952 -3 -1 -162z
m-2074 -516 c0 -1 -61 -63 -136 -137 l-135 -135 21 55 c49 124 65 157 94 188
28 30 35 32 93 32 35 0 63 -1 63 -3z m10 -192 l-195 -195 -65 0 -65 0 195 195
195 195 65 0 65 0 -195 -195z m380 188 c0 -4 -84 -92 -187 -195 l-188 -188
-65 0 -65 0 195 195 195 195 57 0 c32 0 58 -3 58 -7z m335 -73 l-80 -80 -17
33 c-24 45 -22 57 14 94 30 31 36 33 97 33 l66 0 -80 -80z m130 -70 c-82 -82
-151 -147 -154 -145 -2 3 -12 22 -22 43 l-17 37 107 108 106 107 65 0 65 0
-150 -150z m155 -45 c-191 -191 -196 -195 -237 -195 -76 0 -64 20 126 213
l176 177 65 0 65 0 -195 -195z m390 192 c0 -1 -116 -118 -258 -260 -239 -239
-258 -255 -254 -224 2 19 -1 45 -8 57 -11 21 1 36 191 226 l204 204 62 0 c35
0 63 -1 63 -3z m-964 -103 l17 -45 -119 -120 -119 -119 -65 0 -65 0 165 165
c91 91 166 165 167 165 1 0 9 -21 19 -46z m59 -140 l17 -46 -48 -49 c-48 -49
-49 -49 -113 -49 l-66 0 95 95 c52 52 95 95 96 95 1 0 9 -21 19 -46z"/>
<path d="M1570 4604 c-225 -60 -372 -247 -372 -474 0 -140 46 -252 143 -349
95 -95 205 -140 340 -141 197 0 359 99 444 273 90 184 59 395 -80 545 -124
134 -308 190 -475 146z m198 -387 c54 -50 46 -149 -17 -181 -35 -19 -90 -21
-124 -5 -35 16 -70 82 -62 117 20 90 137 130 203 69z"/>
<path d="M3781 4153 c-25 -9 -66 -37 -92 -63 -187 -187 -58 -495 207 -494 157
0 270 106 282 265 8 118 -44 216 -145 276 -59 34 -182 42 -252 16z m176 -160
c45 -21 78 -88 67 -136 -9 -46 -42 -87 -80 -103 -44 -18 -68 -18 -111 3 -96
45 -97 189 -2 236 43 21 82 21 126 0z"/>
<path d="M744 2859 c-41 -20 -44 -47 -44 -348 0 -277 1 -289 21 -315 l20 -26
310 0 c296 0 310 1 329 20 19 19 20 33 20 324 0 284 -1 305 -19 327 l-19 24
-299 2 c-193 1 -306 -2 -319 -8z m504 -341 l-3 -193 -192 -3 -193 -2 0 195 0
195 195 0 195 0 -2 -192z"/>
<path d="M1855 2861 c-50 -21 -50 -24 -50 -348 l0 -305 24 -19 c22 -18 43 -19
325 -19 l303 0 21 23 c22 23 22 29 22 329 0 297 -1 305 -21 324 -20 18 -42 19
-313 21 -160 1 -300 -2 -311 -6z m485 -346 l0 -195 -195 0 -195 0 0 195 0 195
195 0 195 0 0 -195z"/>
<path d="M2943 2860 c-12 -5 -26 -18 -32 -29 -7 -13 -11 -126 -11 -318 0 -287
1 -300 20 -321 21 -22 25 -22 326 -22 l305 0 24 25 25 24 0 288 c0 158 -3 298
-6 311 -13 48 -41 52 -346 51 -156 0 -293 -4 -305 -9z m495 -342 l-3 -193
-192 -3 -193 -2 0 195 0 195 195 0 195 0 -2 -192z"/>
<path d="M740 1997 c-51 -26 -47 -117 5 -137 15 -6 151 -10 316 -10 l290 0 24
25 c16 15 25 36 25 55 0 19 -9 40 -25 55 l-24 25 -293 0 c-214 0 -300 -4 -318
-13z"/>
<path d="M1843 1998 c-50 -24 -48 -114 3 -137 17 -7 119 -11 313 -11 277 0
289 1 315 21 37 29 37 89 0 118 -26 20 -38 21 -318 20 -183 0 -299 -4 -313
-11z"/>
<path d="M2943 2000 c-47 -19 -57 -87 -18 -125 l24 -25 290 0 c194 0 298 4
315 11 54 25 58 110 6 136 -29 15 -581 17 -617 3z"/>
<path d="M1610 1015 l0 -75 75 0 75 0 0 75 0 75 -75 0 -75 0 0 -75z"/>
<path d="M2070 1015 l0 -75 80 0 80 0 0 75 0 75 -80 0 -80 0 0 -75z"/>
<path d="M2540 1015 l0 -75 75 0 75 0 0 75 0 75 -75 0 -75 0 0 -75z"/>
<path d="M4647 5001 c-108 -106 -110 -109 -88 -121 22 -11 30 -6 128 91 124
123 135 139 98 139 -20 0 -54 -26 -138 -109z"/>
<path d="M4806 4960 c-144 -142 -150 -150 -133 -167 16 -17 24 -11 168 132 83
83 155 158 160 168 8 14 5 17 -17 17 -21 0 -59 -32 -178 -150z"/>
<path d="M4935 4888 c-172 -169 -179 -178 -162 -195 16 -17 24 -11 163 127
165 165 187 191 182 223 -3 19 -30 -4 -183 -155z"/>
<path d="M4982 4735 c-125 -123 -132 -131 -118 -150 14 -19 19 -16 116 80 120
118 143 147 138 178 -3 19 -22 4 -136 -108z"/>
<path d="M4296 850 c-449 -448 -822 -823 -827 -832 -8 -15 -5 -18 18 -18 23 0
152 124 811 783 431 430 792 794 803 810 11 15 19 37 17 50 -4 18 -141 -114
-822 -793z"/>
<path d="M4396 750 c-394 -393 -722 -723 -727 -732 -8 -15 -5 -18 18 -18 23 0
137 110 711 683 376 375 692 694 703 710 11 15 19 37 17 50 -4 18 -124 -97
-722 -693z"/>
<path d="M4496 650 c-339 -338 -622 -623 -627 -632 -8 -15 -5 -18 18 -18 23 0
123 95 611 583 321 320 592 594 603 610 11 15 19 37 17 50 -4 18 -106 -80
-622 -593z"/>
<path d="M4596 550 c-284 -283 -522 -523 -527 -533 -8 -14 -5 -17 18 -17 23 0
108 81 511 483 266 265 492 494 503 510 11 15 19 37 17 50 -4 18 -89 -62 -522
-493z"/>
<path d="M4696 450 c-229 -228 -422 -423 -427 -432 -8 -15 -5 -18 18 -18 22 0
93 66 411 383 211 210 392 394 403 410 11 15 19 37 17 50 -4 18 -72 -45 -422
-393z"/>
<path d="M4796 350 c-174 -173 -322 -323 -327 -332 -8 -15 -5 -18 17 -18 23 0
80 52 312 282 156 156 293 295 303 311 11 15 19 37 17 50 -4 18 -54 -28 -322
-293z"/>
<path d="M4896 250 c-119 -118 -222 -223 -227 -232 -8 -15 -5 -18 17 -18 21 0
65 37 211 183 205 202 226 227 221 260 -3 19 -37 -11 -222 -193z"/>
<path d="M4996 150 c-136 -133 -149 -150 -111 -150 18 0 49 23 111 82 102 98
127 130 122 161 -3 19 -19 7 -122 -93z"/>
</g>
</svg>
